<?xml version="1.0" standalone="no"?>
<!DOCTYPE svg PUBLIC "-//W3C//DTD SVG 20010904//EN"
 "http://www.w3.org/TR/2001/REC-SVG-20010904/DTD/svg10.dtd">
<svg version="1.0" xmlns="http://www.w3.org/2000/svg"
 width="16.000000pt" height="16.000000pt" viewBox="0 0 16.000000 16.000000"
 preserveAspectRatio="xMidYMid meet">
<metadata>
Created by potrace 1.11, written by Peter Selinger 2001-2013
</metadata>
<g transform="translate(0.000000,16.000000) scale(0.003125,-0.003125)"
fill="#000000" stroke="none">
<path d="M2215 4540 c-775 -3 -1391 -9 -1405 -14 -73 -27 -166 -111 -201 -182
-11 -23 -24 -68 -29 -100 -14 -87 -13 -3303 1 -3379 21 -116 95 -212 202 -261
l62 -29 1715 0 1715 0 61 28 c77 36 145 104 181 182 l28 60 3 1675 c2 1220 0
1691 -8 1735 -29 152 -143 261 -299 285 -31 5 -189 8 -351 7 -162 -1 -916 -4
-1675 -7z m-702 -70 c98 0 137 3 141 13 5 10 7 10 12 0 4 -10 43 -13 144 -13
101 0 140 3 143 13 4 9 7 9 15 -1 7 -11 42 -13 156 -10 80 2 146 1 146 -2 0
-3 62 -6 137 -8 102 -2 139 1 145 10 8 10 11 10 15 1 6 -17 283 -19 283 -2 0
5 5 7 10 4 6 -3 10 -12 10 -18 0 -9 -143 -12 -598 -14 -1350 -5 -1381 -5
-1435 -30 -96 -45 -146 -120 -168 -257 -7 -45 -8 -42 -4 25 3 78 32 166 62
191 8 7 19 23 24 36 5 13 13 21 18 18 5 -3 33 5 63 19 43 20 69 25 135 25 55
0 83 4 87 13 5 10 7 10 12 0 4 -10 43 -13 145 -13 126 0 139 2 139 18 1 16 1
16 14 0 11 -16 31 -18 149 -18z m1657 -15 c0 -8 -4 -15 -10 -15 -5 0 -10 7
-10 15 0 8 5 15 10 15 6 0 10 -7 10 -15z m300 5 c0 -5 -5 -10 -11 -10 -5 0 -7
5 -4 10 3 6 8 10 11 10 2 0 4 -4 4 -10z m-557 -7 c-7 -2 -19 -2 -25 0 -7 3 -2
5 12 5 14 0 19 -2 13 -5z m-213 -298 l205 -14 285 -80 c313 -88 336 -96 396
-139 22 -16 52 -36 66 -43 30 -16 134 -104 157 -134 9 -10 41 -44 72 -75 31
-30 68 -79 83 -109 15 -29 45 -71 67 -92 22 -21 39 -48 39 -60 0 -12 14 -44
32 -71 63 -99 77 -184 88 -555 11 -328 11 -332 -11 -395 -12 -34 -23 -93 -24
-129 -2 -42 -10 -80 -23 -105 -11 -22 -25 -65 -31 -97 -5 -31 -17 -70 -25 -85
-8 -16 -12 -32 -9 -36 4 -3 -1 -6 -10 -6 -9 0 -17 -5 -17 -10 0 -6 -5 -16 -10
-23 -24 -27 -87 -118 -111 -160 -16 -26 -40 -50 -58 -58 -17 -8 -31 -17 -31
-21 0 -5 -5 -8 -11 -8 -15 0 -48 -42 -49 -62 0 -35 -269 -167 -342 -168 -22 0
-164 -45 -219 -69 -24 -11 -47 -20 -51 -21 -4 0 -29 -7 -55 -15 -78 -23 -252
-37 -518 -44 -276 -7 -284 -8 -342 -75 -17 -18 -51 -43 -76 -54 -26 -11 -66
-34 -91 -51 -25 -17 -49 -31 -55 -31 -6 0 -11 -6 -11 -12 -1 -19 -47 -68 -64
-68 -8 0 -16 -3 -18 -7 -7 -18 -113 -97 -177 -133 -53 -30 -82 -40 -114 -40
l-44 0 -15 53 c-13 45 -13 71 -1 192 7 77 16 255 19 395 l5 256 -28 20 c-15
11 -79 47 -140 79 -88 45 -118 66 -135 94 -12 20 -21 39 -20 44 1 4 -2 7 -8 7
-5 0 -33 46 -61 103 -28 56 -66 119 -83 139 -98 116 -116 167 -117 321 0 9 -4
17 -10 17 -5 0 -9 8 -9 18 0 14 2 15 10 2 6 -9 10 -10 10 -3 0 6 -4 15 -10 18
-5 3 -10 16 -10 28 0 12 -7 35 -15 51 -11 21 -18 87 -25 240 -10 229 -10 237
13 311 8 28 25 86 37 130 28 97 28 97 120 180 41 37 82 77 90 90 8 12 51 62
95 110 44 48 84 94 89 103 5 10 26 36 48 59 21 24 38 47 38 52 0 5 16 20 37
33 20 12 48 31 62 40 14 9 111 49 215 88 l188 72 177 13 c238 17 302 17 541 0z
m1125 -2530 c-11 -8 -26 -19 -32 -25 -19 -16 -16 0 4 22 9 10 23 18 32 18 13
-1 12 -3 -4 -15z"/>
<path d="M2395 4049 c-293 -30 -651 -176 -880 -358 -134 -107 -267 -266 -332
-396 -79 -158 -108 -294 -100 -484 6 -171 28 -256 107 -416 119 -243 316 -448
583 -610 16 -9 15 -16 -3 -85 -57 -212 -93 -491 -88 -672 l3 -116 50 33 c84
57 188 170 305 331 62 85 126 169 143 186 35 35 2 34 332 2 236 -23 445 -16
578 19 445 117 764 459 879 941 31 126 33 466 4 596 -43 197 -121 376 -216
494 -225 279 -659 491 -1099 536 -115 11 -149 11 -266 -1z m488 -98 c486 -98
839 -386 977 -799 45 -135 61 -247 62 -422 0 -366 -89 -614 -300 -832 -165
-171 -388 -284 -657 -334 -146 -28 -475 -26 -635 4 l-115 21 -36 -23 c-62 -42
-168 -157 -290 -318 -65 -86 -123 -160 -129 -163 -16 -10 -12 131 6 226 8 46
33 152 54 234 52 202 71 306 56 310 -312 86 -588 374 -688 720 -20 70 -23 101
-23 255 1 147 4 187 22 252 132 471 542 796 1117 883 138 21 441 14 579 -14z"/>
<path d="M2439 3487 c-71 -48 -127 -162 -156 -320 -18 -99 -23 -356 -13 -742
l5 -200 35 33 c19 18 127 80 240 137 113 57 247 132 299 166 212 140 340 308
366 481 15 97 -41 205 -128 250 -55 28 -161 22 -232 -12 -64 -30 -184 -150
-258 -257 -32 -46 -59 -83 -61 -83 -2 0 14 64 36 143 59 219 63 336 12 397
-21 25 -33 30 -68 30 -28 0 -55 -8 -77 -23z"/>
<path d="M1954 3201 c-43 -26 -77 -73 -118 -162 -38 -83 -53 -132 -70 -234
l-12 -70 -28 80 c-38 108 -81 190 -108 209 -31 22 -74 20 -98 -4 -41 -41 -14
-169 61 -297 32 -54 246 -283 265 -283 12 0 91 140 163 290 119 246 134 427
41 475 -38 20 -58 19 -96 -4z"/>
<path d="M3124 2593 c-43 -42 -97 -152 -120 -242 -15 -59 -35 -251 -27 -260 6
-8 313 19 390 35 188 38 284 122 241 211 -44 94 -249 83 -472 -25 -5 -3 10 23
33 57 50 73 91 157 91 187 0 12 -9 33 -21 48 -30 38 -69 35 -115 -11z"/>
<path d="M1975 1030 c-3 -5 -1 -10 4 -10 6 0 11 5 11 10 0 6 -2 10 -4 10 -3 0
-8 -4 -11 -10z"/>
</g>
</svg>
